<?xml version="1.0" encoding="utf-8"?>
<!-- Generator: Adobe Illustrator 17.0.0, SVG Export Plug-In . SVG Version: 6.00 Build 0)  -->
<svg xmlns="http://www.w3.org/2000/svg" xmlns:xlink="http://www.w3.org/1999/xlink" version="1.1" id="Capa_1" x="0px" y="0px" width="24px" height="24px" viewBox="0 0 24 24" style="enable-background:new 0 0 24 24;" xml:space="preserve">

<path id="584091133_shock_x5F_color_grid" class="stshockcolor" d="M15.482,12.179c-0.019,0.371-0.092,0.725-0.219,1.057C15.649,13.09,16.063,13,16.5,13  c1.933,0,3.5,1.567,3.5,3.5V20h-3.5c-1.933,0-3.5-1.567-3.5-3.5c0-0.437,0.09-0.851,0.236-1.237  c-0.327,0.124-0.677,0.197-1.043,0.217l-1.27,2.382l3.607,3.607L13.47,22.53l-4.393-4.393l1.556-2.917  c-0.142-0.061-0.272-0.141-0.404-0.219l-2.342,2.196l1.81,4.524l-1.393,0.557l-2.19-5.476L9.103,14H5.028l-3.552-3.463l1.047-1.074  L5.639,12.5h2.912C8.527,12.335,8.5,12.171,8.5,12c0-0.437,0.09-0.85,0.237-1.236C8.351,10.91,7.937,11,7.5,11  c-0.935,0-1.78-0.372-2.408-0.97l-0.004,0.003c0,0-0.015-0.015-0.039-0.039C5.033,9.979,5.017,9.962,5.001,9.946  C4.814,9.753,4.303,9.212,3.365,8.094C2.112,6.602,2,4,2,4l2.441,1.831c0.325-0.594,0.812-1.078,1.408-1.4L4,2  c0,0,2.602,0.122,4.105,1.359c1.467,1.207,1.889,1.689,1.889,1.689C10.615,5.679,11,6.544,11,7.5c0,0.437-0.09,0.851-0.236,1.237  C11.15,8.59,11.563,8.5,12,8.5c0.17,0,0.334,0.027,0.497,0.05l0.015-2.93l-3.021-3.13l1.079-1.042l3.446,3.569l-0.021,4.075  l2.818-2.976l5.465,2.218l-0.564,1.39l-4.516-1.833l-2.202,2.325c0.079,0.132,0.159,0.263,0.221,0.406l2.917-1.536l4.37,4.415  l-1.066,1.055l-3.589-3.625L15.482,12.179z" style="fill:#BF360C;;"/>
<path class="st1" d="M7.887,17.197l1.81,4.524l-1.393,0.557l-2.19-5.476L9.103,14H5.028l-3.552-3.463l1.047-1.074L5.639,12.5h2.912  c0.155,1.067,0.786,1.973,1.678,2.501L7.887,17.197z M12.193,15.48C12.128,15.484,12.066,15.5,12,15.5  c-0.485,0-0.947-0.1-1.368-0.279l-1.556,2.917l4.393,4.393l1.061-1.061l-3.607-3.607L12.193,15.48z M18.133,9.088l-2.917,1.536  C15.398,11.047,15.5,11.511,15.5,12c0,0.061-0.015,0.119-0.018,0.179l2.366-1.247l3.589,3.625l1.066-1.055L18.133,9.088z   M21.713,9.725l0.564-1.39l-5.465-2.218l-2.818,2.976l0.021-4.075L10.57,1.449L9.491,2.491l3.021,3.13l-0.015,2.93  c1.064,0.154,1.968,0.781,2.498,1.668l2.202-2.325L21.713,9.725z M5.001,9.946C4.383,9.315,4,8.453,4,7.5  c0-0.608,0.169-1.171,0.441-1.669L2,4c0,0,0.112,2.602,1.365,4.094C4.303,9.212,4.814,9.753,5.001,9.946z M5.092,10.03  c-0.013-0.013-0.03-0.022-0.043-0.035c0.023,0.023,0.039,0.039,0.039,0.039L5.092,10.03z M7.5,4c0.977,0,1.858,0.402,2.493,1.047  c0,0-0.422-0.482-1.889-1.689C6.602,2.122,4,2,4,2l1.85,2.431C6.343,4.165,6.9,4,7.5,4z" style="opacity:0.3;;"/>
</svg>
