<svg xmlns="http://www.w3.org/2000/svg" width="800" height="800" viewBox="0 0 800 800">
  <metadata><?xpacket begin="﻿" id="W5M0MpCehiHzreSzNTczkc9d"?>
<x:xmpmeta xmlns:x="adobe:ns:meta/" x:xmptk="Adobe XMP Core 5.6-c140 79.160451, 2017/05/06-01:08:21        ">
   <rdf:RDF xmlns:rdf="http://www.w3.org/1999/02/22-rdf-syntax-ns#">
      <rdf:Description rdf:about=""/>
   </rdf:RDF>
</x:xmpmeta>
                                                                                                    
                                                                                                    
                                                                                                    
                                                                                                    
                                                                                                    
                                                                                                    
                                                                                                    
                                                                                                    
                                                                                                    
                                                                                                    
                                                                                                    
                                                                                                    
                                                                                                    
                                                                                                    
                                                                                                    
                                                                                                    
                                                                                                    
                                                                                                    
                                                                                                    
                                                                                                    
                           
<?xpacket end="w"?></metadata>
<defs>
    <style>
      .cls-1 {
        fill: #cecece;
      }

      .cls-1, .cls-2 {
        fill-rule: evenodd;
      }

      .cls-2 {
        fill: none;
      }
    </style>
  </defs>
  <path id="Rectangle_1_copy_2" data-name="Rectangle 1 copy 2" class="cls-1" d="M-1,0H800V40H-1V0Zm0,80H800v40H-1V80Zm0,80H800v40H-1v-40Zm0,80H800v40H-1v-40Zm0,80H800v40H-1v-40Zm0,80H800v40H-1v-40Zm0,80.033H800v40H-1v-40Zm0,80H800v40H-1v-40Zm0,80H800v40H-1v-40Zm0,80H800v40H-1v-40Z"/>
  <path id="Rectangle_1_copy_3" data-name="Rectangle 1 copy 3" class="cls-2" d="M-1,40H800V80H-1V40Zm0,80H800v40H-1V120Zm0,80H800v40H-1v-40Zm0,80H800v40H-1v-40Zm0,80H800v40H-1v-40Zm0,80H800v40H-1v-40Zm0,80.033H800v40H-1v-40Zm0,80H800v40H-1v-40Zm0,80H800v40H-1v-40Zm0,80H800v40H-1v-40Z"/>
</svg>
