<?xml version="1.0" encoding="utf-8"?>
<!-- Generator: Adobe Illustrator 16.0.0, SVG Export Plug-In . SVG Version: 6.00 Build 0)  -->
<svg xmlns="http://www.w3.org/2000/svg" xmlns:xlink="http://www.w3.org/1999/xlink" version="1.1" id="Capa_1" x="0px" y="0px" width="24px" height="24px" viewBox="0 0 24 24" style="enable-background:new 0 0 24 24;" xml:space="preserve">

<path id="58128990_shock_x5F_color_grid" class="stshockcolor" d="M18.5,7c-0.823,0-1.602,0.186-2.303,0.51C14.851,7.184,13.448,7,12,7  c-1.449,0-2.851,0.184-4.197,0.51C7.102,7.186,6.323,7,5.5,7C2.462,7,0,9.462,0,12.5C0,15.537,2.462,18,5.5,18  c2.063,0,3.857-1.137,4.798-2.816C10.851,15.075,11.416,15,12,15c0.585,0,1.148,0.075,1.702,0.184C14.644,16.863,16.438,18,18.5,18  c3.037,0,5.5-2.463,5.5-5.5C24,9.462,21.537,7,18.5,7z" style="fill:#546E7A;;"/>
<path class="st1" d="M7.979,14.973c-1.367,1.366-3.584,1.373-4.949,0.006c-1.366-1.367-1.367-3.587,0-4.957  c1.367-1.366,3.582-1.359,4.949,0.008C9.344,11.396,9.346,13.605,7.979,14.973z M20.975,10.03c-1.367-1.367-3.582-1.374-4.949-0.008  c-1.366,1.369-1.365,3.589,0,4.957s3.582,1.36,4.949-0.006C22.342,13.605,22.34,11.396,20.975,10.03z" style="fill:#80DEEA;;"/>
<path class="st0" d="M5.5,7C8.538,7,11,9.462,11,12.5c0,3.037-2.462,5.5-5.5,5.5S0,15.537,0,12.5C0,9.462,2.462,7,5.5,7z M13,12.5  c0,3.037,2.463,5.5,5.5,5.5s5.5-2.463,5.5-5.5C24,9.462,21.537,7,18.5,7S13,9.462,13,12.5z" style="opacity:0.3;fill:#FFFFFF;;"/>
<path class="st3" d="M3.029,14.979c-1.367-1.367-1.368-3.587,0-4.957c1.365-1.366,3.58-1.359,4.947,0.008L3.029,14.979z   M20.977,10.03c-1.367-1.367-3.582-1.374-4.947-0.008c-1.368,1.369-1.367,3.589,0,4.957L20.977,10.03z" style="opacity:0.4;fill:#FFFFFF;;"/>
</svg>
