<?xml version="1.0" encoding="utf-8"?>
<!-- Generator: Adobe Illustrator 17.0.0, SVG Export Plug-In . SVG Version: 6.00 Build 0)  -->
<svg xmlns="http://www.w3.org/2000/svg" xmlns:xlink="http://www.w3.org/1999/xlink" version="1.1" id="5872596587_Capa_1_grid" x="0px" y="0px" width="24px" height="24px" viewBox="0 0 24 24" style="enable-background:new 0 0 24 24;" xml:space="preserve">
<path id="5872596587_shock_x5f_color_grid" class="stshockcolor" style="fill:#FFD180;" d="M22,6v11c0,0.396-0.232,0.753-0.594,0.914l-9,4  c-0.003,0.001-0.005-0.008-0.008-0.008C12.271,21.962,12.137,22,12,22c-0.138,0-0.276-0.028-0.406-0.086l-9-4  C2.233,17.753,2,17.396,2,17V6c0-0.33,0.163-0.639,0.436-0.825C2.51,5.124,2.591,5.086,2.674,5.057  c0.004-0.002,0.005-0.005,0.009-0.006l9-3c0.206-0.068,0.427-0.068,0.633,0l9,3c0.003,0.001,0.003,0.004,0.006,0.005  c0.084,0.029,0.166,0.067,0.242,0.119C21.837,5.361,22,5.67,22,6z"/>
<path style="opacity:0.4;fill:#FFFFFF;" d="M21.756,5.348L12,9.5L2.266,5.328l0.153-0.14c0.006-0.004,0.01-0.01,0.016-0.014  C2.51,5.124,2.591,5.086,2.674,5.057c0.004-0.002,0.005-0.005,0.009-0.006l9-3c0.206-0.068,0.427-0.068,0.633,0l9,3  c0.003,0.001,0.003,0.004,0.006,0.005c0.084,0.029,0.166,0.067,0.242,0.119C21.637,5.224,21.7,5.283,21.756,5.348z"/>
<path style="opacity:0.4;" d="M6,10.946V6.929l9.663-3.762l2.419,0.806L8,7.771v3.979L6,10.946z"/>
<path style="opacity:0.4;" d="M2.266,5.328L12,9.5V22c-0.138,0-0.276-0.028-0.406-0.086l-9-4C2.233,17.753,2,17.396,2,17v-3V9.75V6  C2,5.747,2.099,5.51,2.266,5.328z"/>
</svg>
