<?xml version="1.0" encoding="utf-8"?>
<!-- Generator: Adobe Illustrator 16.0.0, SVG Export Plug-In . SVG Version: 6.00 Build 0)  -->
<!DOCTYPE svg PUBLIC "-//W3C//DTD SVG 1.1//EN" "http://www.w3.org/Graphics/SVG/1.1/DTD/svg11.dtd">
<svg xmlns="http://www.w3.org/2000/svg" xmlns:xlink="http://www.w3.org/1999/xlink" version="1.1" id="Capa_1" x="0px" y="0px" width="24px" height="24px" viewBox="0 0 24 24" style="enable-background:new 0 0 24 24;" xml:space="preserve">

<rect class="st2" width="24" height="24" style="fill:none;;"/>
<path id="582145160_shock_x5F_color" class="stshockcolor" d="M22,8.5c0,3.78-3.4,6.86-8.55,11.54L12,21.35l-1.45-1.319C5.4,15.36,2,12.28,2,8.5  C2,5.42,4.42,3,7.5,3c1.74,0,3.41,0.81,4.5,2.09C13.09,3.81,14.76,3,16.5,3C19.58,3,22,5.42,22,8.5z" style="fill:#EF5350;;"/>
<path class="st1" d="M12,5.09v16.26l-1.45-1.319C5.4,15.36,2,12.28,2,8.5C2,5.42,4.42,3,7.5,3C9.24,3,10.91,3.81,12,5.09z" style="opacity:0.2;fill:#FFFFFF;;"/>
</svg>
