<?xml version="1.0" encoding="utf-8"?>
<!-- Generator: Adobe Illustrator 16.0.0, SVG Export Plug-In . SVG Version: 6.00 Build 0)  -->
<!DOCTYPE svg PUBLIC "-//W3C//DTD SVG 1.1//EN" "http://www.w3.org/Graphics/SVG/1.1/DTD/svg11.dtd">
<svg xmlns="http://www.w3.org/2000/svg" xmlns:xlink="http://www.w3.org/1999/xlink" version="1.1" id="Capa_1" x="0px" y="0px" width="24px" height="24px" viewBox="0 0 24 24" style="enable-background:new 0 0 24 24;" xml:space="preserve">

<rect class="st4" width="24" height="24" style="fill:none;;"/>
<rect class="st4" width="24" height="24" style="fill:none;;"/>
<path class="st2" d="M22,20v3H2v-3c0-0.77,0.3-1.43,0.8-2c0.74-0.84,1.92-1.46,3.2-1.91C8.31,15.27,10.96,15,12,15  C14,15,22,16,22,20z" style="fill:#263238;;"/>
<path class="st5" d="M22,20v3H12v-8C14,15,22,16,22,20z" style="opacity:0.1;fill:#FFFFFF;;"/>
<path class="st0" d="M12,17c-3.31,0-6,2.69-6,6h2c0-2.21,1.79-4,4-4s4,1.79,4,4h2C18,19.69,15.31,17,12,17z" style="fill:#B0BEC5;;"/>
<path id="581641475_shock_x5F_color" class="stshockcolor" d="M12,3c2.762,0,5,2.239,5,5s-2.238,5-5,5c-2.761,0-5-2.239-5-5S9.239,3,12,3z M4,23h5v-3  c0-1-1-1-1-1H7C7,19,4,19,4,23z M17,19h-1c0,0-1,0-1,1v3h5C20,19,17,19,17,19z" style="fill:#1E88E5;;"/>
<path class="st2" d="M7,7c0,0,1,2,5,2s5-2,5-2H7z M7,5c0,0-1-1-1-2s2-2,2-2h8c0,0,2,1,2,2s-1,2-1,2H7z" style="fill:#263238;;"/>
<rect x="7" y="5" class="st3" width="10" height="2" style="fill:#FFB300;;"/>
</svg>
