<?xml version="1.0" encoding="utf-8"?>
<!-- Generator: Adobe Illustrator 16.0.0, SVG Export Plug-In . SVG Version: 6.00 Build 0)  -->
<!DOCTYPE svg PUBLIC "-//W3C//DTD SVG 1.1//EN" "http://www.w3.org/Graphics/SVG/1.1/DTD/svg11.dtd">
<svg xmlns="http://www.w3.org/2000/svg" xmlns:xlink="http://www.w3.org/1999/xlink" version="1.1" id="Capa_1" x="0px" y="0px" width="24px" height="24px" viewBox="0 0 24 24" style="enable-background:new 0 0 24 24;" xml:space="preserve">

<rect class="st1" width="24" height="24" style="fill:none;;"/>
<path id="584977629_shock_x5F_color" class="stshockcolor" d="M22,11c0,0,0,3,0,6s-3,3-3,3H2v-9c0-1,0-1,0-1s12-7,14-7C22,3,22,11,22,11z" style="fill:#FFB300;;"/>
<path class="st2" d="M13,11c0,1.1-0.9,2-2,2s-2-0.9-2-2H2v9h4c0-1.1,0.9-2,2-2s2,0.9,2,2h9c0,0,3,0,3-3s0-6,0-6H13z M5.5,16.5  c-1.1,0-2-0.9-2-2s0.9-2,2-2s2,0.9,2,2S6.6,16.5,5.5,16.5z M12.5,18c-0.83,0-1.5-0.67-1.5-1.5s0.67-1.5,1.5-1.5s1.5,0.67,1.5,1.5  S13.33,18,12.5,18z M18,17c-1.1,0-2-0.9-2-2s0.9-2,2-2s2,0.9,2,2S19.1,17,18,17z" style="opacity:0.4;fill:#FFFFFF;;"/>
</svg>
