<?xml version="1.0" encoding="utf-8"?>
<!-- Generator: Adobe Illustrator 17.0.0, SVG Export Plug-In . SVG Version: 6.00 Build 0)  -->
<svg xmlns="http://www.w3.org/2000/svg" xmlns:xlink="http://www.w3.org/1999/xlink" version="1.1" id="5872596599_Capa_1_grid" x="0px" y="0px" width="24px" height="24px" viewBox="0 0 24 24" style="enable-background:new 0 0 24 24;" xml:space="preserve">
<path id="5872596599_shock_x5f_color_grid" class="stshockcolor" style="fill:#E0E0E0;" d="M22.207,14.793l-8.5-8.5C13.52,6.105,13.266,6,13,6H7C6.448,6,6,6.448,6,7v6  c0,0.266,0.105,0.52,0.293,0.707l8.5,8.5c0.195,0.195,0.451,0.293,0.707,0.293s0.512-0.098,0.707-0.293l6-6  C22.598,15.816,22.598,15.184,22.207,14.793z M9.5,11.25c-0.966,0-1.75-0.784-1.75-1.75S8.534,7.75,9.5,7.75s1.75,0.784,1.75,1.75  S10.466,11.25,9.5,11.25z"/>
<path style="opacity:0.2;" d="M19.207,19.207l-3,3C16.012,22.402,15.756,22.5,15.5,22.5s-0.512-0.098-0.707-0.293l-8.5-8.5  C6.105,13.52,6,13.266,6,13V7c0-0.276,0.112-0.526,0.293-0.707l1.97,1.97C7.946,8.579,7.75,9.017,7.75,9.5  c0,0.966,0.784,1.75,1.75,1.75c0.483,0,0.921-0.196,1.237-0.513L19.207,19.207z"/>
<path style="fill:#424242;" d="M9.75,10.357c-0.414,0-0.75-0.336-0.75-0.75C9,5.897,6.645,3.5,3,3.5c-0.414,0-0.75-0.336-0.75-0.75  S2.586,2,3,2c4.486,0,7.5,3.057,7.5,7.607C10.5,10.021,10.164,10.357,9.75,10.357z"/>
<path style="opacity:0.4;" d="M18.793,17.207l-5.5-5.5l1.414-1.414l5.5,5.5L18.793,17.207z M17.207,18.793l-3.5-3.5l-1.414,1.414  l3.5,3.5L17.207,18.793z"/>
</svg>
