<?xml version="1.0" encoding="utf-8"?>
<!-- Generator: Adobe Illustrator 16.0.0, SVG Export Plug-In . SVG Version: 6.00 Build 0)  -->
<!DOCTYPE svg PUBLIC "-//W3C//DTD SVG 1.1//EN" "http://www.w3.org/Graphics/SVG/1.1/DTD/svg11.dtd">
<svg xmlns="http://www.w3.org/2000/svg" xmlns:xlink="http://www.w3.org/1999/xlink" version="1.1" id="Capa_1" x="0px" y="0px" width="24px" height="24px" viewBox="0 0 24 24" style="enable-background:new 0 0 24 24;" xml:space="preserve">

<rect x="6" y="4" class="st2" width="14" height="2" style="fill:#FFFFFF;;"/>
<path id="58646136_shock_x5F_color" class="stshockcolor" d="M20,9v2h2v3h-2v2h2v3h-2v1c0,1.1-0.9,2-2,2H6c-1.1,0-2-0.9-2-2V4c0-1.1,0.9-2,2-2h12  c1.1,0,2,0.9,2,2H6v2h16v3H20z" style="fill:#7E57C2;;"/>
<path class="st1" d="M18,2H6v2h14C20,2,18,2,18,2z M20,11V6H6v16h12c1.1,0,2-0.9,2-2v-6h2v-3H20z M13,8c1.66,0,3,1.34,3,3  s-1.34,3-3,3s-3-1.34-3-3S11.34,8,13,8z M18,19H8v-1.25C8,16.09,11.33,15,13,15s5,1.09,5,2.75V19z" style="opacity:0.3;fill:#FFFFFF;;"/>
</svg>
