<?xml version="1.0" encoding="utf-8"?>
<!-- Generator: Adobe Illustrator 16.0.0, SVG Export Plug-In . SVG Version: 6.00 Build 0)  -->
<!DOCTYPE svg PUBLIC "-//W3C//DTD SVG 1.1//EN" "http://www.w3.org/Graphics/SVG/1.1/DTD/svg11.dtd">
<svg xmlns="http://www.w3.org/2000/svg" xmlns:xlink="http://www.w3.org/1999/xlink" version="1.1" id="Capa_1" x="0px" y="0px" width="24px" height="24px" viewBox="0 0 24 24" style="enable-background:new 0 0 24 24;" xml:space="preserve">

<rect class="st4" width="24" height="24" style="fill:none;;"/>
<path id="58439716_shock_x5F_color" class="stshockcolor" d="M22,6v13c0,0,0,1-1,1H3c0,0-1,0-1-1V6c0,0,0-1,1-1h18C21,5,22,5,22,6z" style="fill:#9575CD;;"/>
<path class="st0" d="M2,9v10c0,1,1,1,1,1h5c0,0,0,0,0-2s4-2,4-2s4,0,4,2s0,2,0,2h5c1,0,1-1,1-1V9H2z M12,15c-1.1,0-2-0.9-2-2  c0-1.1,0.9-2,2-2c1.1,0,2,0.9,2,2C14,14.1,13.1,15,12,15z" style="opacity:0.6;fill:#FFFFFF;;"/>
<circle class="st1" cx="20" cy="7" r="1" style="fill:#EC407A;;"/>
<path class="st2" d="M16,7c0-0.552,0.447-1,1-1s1,0.448,1,1s-0.447,1-1,1S16,7.552,16,7z M14,8c0.553,0,1-0.448,1-1s-0.447-1-1-1  s-1,0.448-1,1S13.447,8,14,8z" style="fill:#5E35B1;;"/>
</svg>
