<?xml version="1.0" encoding="utf-8"?>
<!-- Generator: Adobe Illustrator 16.0.0, SVG Export Plug-In . SVG Version: 6.00 Build 0)  -->
<!DOCTYPE svg PUBLIC "-//W3C//DTD SVG 1.1//EN" "http://www.w3.org/Graphics/SVG/1.1/DTD/svg11.dtd">
<svg xmlns="http://www.w3.org/2000/svg" xmlns:xlink="http://www.w3.org/1999/xlink" version="1.1" id="Capa_1" x="0px" y="0px" width="24px" height="24px" viewBox="0 0 24 24" style="enable-background:new 0 0 24 24;" xml:space="preserve">

<rect class="st2" width="24" height="24" style="fill:none;;"/>
<path id="581045060_shock_x5F_color" class="stshockcolor" d="M23,16c0,3.31-4.03,7-9,7c-4.97,0-9-3.69-9-7c0-1.13,0.37-2.17,1-3  c-0.11-0.09-0.22-0.18-0.33-0.29c-0.62-0.54-1.1-1.24-1.38-2.04c0.21-0.15,0.36-0.28,0.47-0.4c-0.17-0.04-0.38-0.08-0.62-0.12  C4.05,9.78,4,9.4,4,9c0-0.33,0.03-0.64,0.09-0.96V8.03C4.55,5.73,6.57,4,9,4c2.76,0,5,2.24,5,5c0,0.9-0.24,1.75-0.66,2.48  C13.84,12.07,15,13,17,13c4,0,3-4,3-4S23,11,23,16z" style="fill:#FFCA28;;"/>
<path class="st0" d="M7,10c0,0.27-0.12,1.68-2.55,2.89C4.3,12.97,4.15,13,4,13c-0.37,0-0.72-0.2-0.89-0.55  c-0.25-0.5-0.05-1.1,0.44-1.34c0.31-0.15,0.55-0.3,0.74-0.44c0.21-0.15,0.36-0.28,0.47-0.4c-0.17-0.04-0.39-0.08-0.63-0.12  C3.52,10.06,2.73,10,2,10c-0.55,0-1-0.45-1-1s0.45-1,1-1C7,8,7,9.51,7,10z" style="fill:#FB8C00;;"/>
<circle class="st3" cx="8" cy="8" r="1.25" style="fill:#37474F;;"/>
</svg>
