<?xml version="1.0" encoding="utf-8"?>
<!-- Generator: Adobe Illustrator 16.0.0, SVG Export Plug-In . SVG Version: 6.00 Build 0)  -->
<!DOCTYPE svg PUBLIC "-//W3C//DTD SVG 1.1//EN" "http://www.w3.org/Graphics/SVG/1.1/DTD/svg11.dtd">
<svg xmlns="http://www.w3.org/2000/svg" xmlns:xlink="http://www.w3.org/1999/xlink" version="1.1" id="Capa_1" x="0px" y="0px" width="24px" height="24px" viewBox="0 0 24 24" style="enable-background:new 0 0 24 24;" xml:space="preserve">

<rect class="st2" width="24" height="24" style="fill:none;;"/>
<path class="st0" d="M15,6v9H2V5.813C2,4.815,2.818,4,3.818,4H13C15,4,15,6,15,6z" style="fill:#B0BEC5;;"/>
<rect x="2" y="15" class="st1" width="20" height="2" style="fill:#90A4AE;;"/>
<path id="58244442_shock_x5F_color" class="stshockcolor" d="M22,11v4.03L15,15V7h4L22,11z M9.707,6.293L8.293,7.707L9.586,9H2v2h7.586l-1.293,1.293  l1.414,1.414L13.414,10L9.707,6.293z" style="fill:#039BE5;;"/>
<path class="st3" d="M22,11h-4c-1,0-1-1-1-1V7h2L22,11z" style="opacity:0.7;fill:#FFFFFF;;"/>
<path class="st5" d="M6.5,14C7.881,14,9,15.119,9,16.5S7.881,19,6.5,19S4,17.881,4,16.5S5.119,14,6.5,14z M17.5,14  c1.381,0,2.5,1.119,2.5,2.5S18.881,19,17.5,19S15,17.881,15,16.5S16.119,14,17.5,14z" style="fill:#455A64;;"/>
</svg>
