<?xml version="1.0" encoding="utf-8"?>
<!-- Generator: Adobe Illustrator 16.0.0, SVG Export Plug-In . SVG Version: 6.00 Build 0)  -->
<!DOCTYPE svg PUBLIC "-//W3C//DTD SVG 1.1//EN" "http://www.w3.org/Graphics/SVG/1.1/DTD/svg11.dtd">
<svg xmlns="http://www.w3.org/2000/svg" xmlns:xlink="http://www.w3.org/1999/xlink" version="1.1" id="Capa_1" x="0px" y="0px" width="24px" height="24px" viewBox="0 0 24 24" style="enable-background:new 0 0 24 24;" xml:space="preserve">

<rect class="st2" width="24" height="24" style="fill:none;;"/>
<path id="58244443_shock_x5F_color" class="stshockcolor" d="M19,3H5C3,3,3,5,3,5v16c0,0,0,2,2,2h14c2,0,2-2,2-2V5C21,3,19,3,19,3z" style="fill:#5D4037;;"/>
<rect x="5" y="5" class="st3" width="14" height="16" style="opacity:0.7;fill:#FFFFFF;;"/>
<path class="st1" d="M7,8h10V5V3h-2.18C14.4,1.84,13.3,1,12,1S9.6,1.84,9.18,3H7v2V8z M12,3c0.55,0,1,0.45,1,1s-0.45,1-1,1  s-1-0.45-1-1S11.45,3,12,3z" style="fill:#FFA000;;"/>
<polygon class="st4" points="12.707,9.293 11.293,10.707 13.586,13 5,13 5,15 13.586,15 11.293,17.293 12.707,18.707 17.414,14 " style="fill:#0288D1;;"/>
</svg>
