<?xml version="1.0" encoding="utf-8"?>
<!-- Generator: Adobe Illustrator 16.0.0, SVG Export Plug-In . SVG Version: 6.00 Build 0)  -->
<svg xmlns="http://www.w3.org/2000/svg" xmlns:xlink="http://www.w3.org/1999/xlink" version="1.1" id="Capa_1" x="0px" y="0px" width="24px" height="24px" viewBox="0 0 24 24" style="enable-background:new 0 0 24 24;" xml:space="preserve">

<path id="585290901_shock_x5F_color_grid" class="stshockcolor" d="M16.28,12.747C18.512,11.326,20,8.836,20,6h-2c0,2.037-1.022,3.837-2.578,4.922  l-1.78-3.783C13.866,6.815,14,6.424,14,6c0-0.738-0.404-1.376-1-1.723V2h-2v2.277C10.405,4.624,10,5.262,10,6  c0,0.424,0.134,0.815,0.359,1.139L3.992,20.67L4.471,22l1.331-0.479l3.725-7.916C10.321,13.864,11.148,14,12,14  c0.863,0,1.693-0.142,2.473-0.396l3.726,7.916L19.529,22l0.479-1.331L16.28,12.747z M12,12c-0.553,0-1.09-0.082-1.611-0.228  L12,8.349l1.611,3.425C13.098,11.917,12.559,12,12,12z" style="fill:#BDBDBD;;"/>
<path class="st1" d="M14,6c0,1.104-0.896,2-2,2s-2-0.896-2-2s0.896-2,2-2S14,4.896,14,6z M13.611,11.774  C13.098,11.917,12.559,12,12,12c-0.553,0-1.09-0.082-1.611-0.228l-0.862,1.832C10.321,13.864,11.148,14,12,14  c0.863,0,1.693-0.142,2.473-0.396L13.611,11.774z M16.28,12.747C18.512,11.326,20,8.836,20,6h-2c0,2.037-1.022,3.837-2.578,4.922  L16.28,12.747z" style="opacity:0.4;;"/>
</svg>
