<?xml version="1.0" encoding="iso-8859-1"?>
<!-- Generator: Adobe Illustrator 19.0.0, SVG Export Plug-In . SVG Version: 6.00 Build 0)  -->
<svg version="1.1" id="Layer_1" xmlns="http://www.w3.org/2000/svg" xmlns:xlink="http://www.w3.org/1999/xlink" x="0px" y="0px"
	 viewBox="0 0 309.268 309.268" style="enable-background:new 0 0 309.268 309.268;" xml:space="preserve">
<g>
	<path style="fill:#E3B451;" d="M57.988,101.478H251.28l57.988,57.988H0L57.988,101.478z"/>
	<path style="fill:#D07C40;" d="M67.652,120.807h173.963l48.323,48.323c0,0-3.962,48.323-10.95,48.323H28.453
		c-5.837,0-9.123-48.323-9.123-48.323L67.652,120.807z"/>
	<path style="fill:#E4E7E7;" d="M57.988,14.497H251.28c5.345,0,9.665,4.33,9.665,9.665V188.46c0,5.335-4.32,9.665-9.665,9.665
		H57.988c-5.345,0-9.665-4.33-9.665-9.665V24.161C48.323,18.827,52.643,14.497,57.988,14.497z"/>
	<path style="fill:#CCD0D2;" d="M86.981,62.82h135.304c5.345,0,9.665-4.33,9.665-9.665s-4.32-9.665-9.665-9.665H86.981
		c-5.345,0-9.665,4.33-9.665,9.665S81.637,62.82,86.981,62.82z M222.286,82.149H86.981c-5.345,0-9.665,4.33-9.665,9.665
		s4.32,9.665,9.665,9.665h135.304c5.345,0,9.665-4.32,9.665-9.665S227.63,82.149,222.286,82.149z M222.286,120.807H86.981
		c-5.345,0-9.665,4.33-9.665,9.665c0,5.335,4.32,9.665,9.665,9.665h135.304c5.345,0,9.665-4.33,9.665-9.665
		S227.63,120.807,222.286,120.807z"/>
	<path style="fill:#F4B459;" d="M212.621,159.466v19.329c0,10.679-8.659,19.329-19.329,19.329h-77.317
		c-10.67,0-19.329-8.659-19.329-19.329v-19.329H0v115.975c0,10.67,8.659,19.329,19.329,19.329h270.609
		c10.67,0,19.329-8.659,19.329-19.329V159.466H212.621z"/>
</g>
<g>
</g>
<g>
</g>
<g>
</g>
<g>
</g>
<g>
</g>
<g>
</g>
<g>
</g>
<g>
</g>
<g>
</g>
<g>
</g>
<g>
</g>
<g>
</g>
<g>
</g>
<g>
</g>
<g>
</g>
</svg>
