<?xml version="1.0" encoding="utf-8"?>
<!-- Generator: Adobe Illustrator 16.0.0, SVG Export Plug-In . SVG Version: 6.00 Build 0)  -->
<!DOCTYPE svg PUBLIC "-//W3C//DTD SVG 1.1//EN" "http://www.w3.org/Graphics/SVG/1.1/DTD/svg11.dtd">
<svg xmlns="http://www.w3.org/2000/svg" xmlns:xlink="http://www.w3.org/1999/xlink" version="1.1" id="Capa_1" x="0px" y="0px" width="24px" height="24px" viewBox="0 0 24 24" style="enable-background:new 0 0 24 24;" xml:space="preserve">

<rect class="st1" width="24" height="24" style="fill:none;;"/>
<path class="st2" d="M23,6c0-1.104-0.896-2-2-2H3C1.896,4,1,4.896,1,6v12c0,1.104,0.896,2,2,2h18c1.104,0,2-0.896,2-2V6z" style="fill:#CFD8DC;;"/>
<path id="58344547_shock_x5F_color" class="stshockcolor" d="M7,13c-1.657,0-3-1.343-3-3s1.343-3,3-3s3,1.343,3,3S8.657,13,7,13z M3,18h8c0,0,0-1,0-2  s-2-2-4-2s-4,1-4,2S3,18,3,18z" style="fill:#1976D2;;"/>
<path class="st3" d="M13,10c0-0.552,0.447-1,1-1h6c0.553,0,1,0.448,1,1l0,0c0,0.552-0.447,1-1,1h-6C13.447,11,13,10.552,13,10L13,10  z M13,14c0,0.553,0.447,1,1,1h6c0.553,0,1-0.447,1-1l0,0c0-0.553-0.447-1-1-1h-6C13.447,13,13,13.447,13,14L13,14z" style="fill:#455A64;;"/>
</svg>
