<?xml version="1.0" encoding="utf-8"?>
<!-- Generator: Adobe Illustrator 16.0.0, SVG Export Plug-In . SVG Version: 6.00 Build 0)  -->
<!DOCTYPE svg PUBLIC "-//W3C//DTD SVG 1.1//EN" "http://www.w3.org/Graphics/SVG/1.1/DTD/svg11.dtd">
<svg xmlns="http://www.w3.org/2000/svg" xmlns:xlink="http://www.w3.org/1999/xlink" version="1.1" id="Capa_1" x="0px" y="0px" width="24px" height="24px" viewBox="0 0 24 24" style="enable-background:new 0 0 24 24;" xml:space="preserve">

<rect class="st0" width="24" height="24" style="fill:none;;"/>
<path id="583245852_shock_x5F_color" class="stshockcolor" d="M22,3.9v12.2c0,1.051-0.85,1.9-1.9,1.9H20v0.1c0,1.051-0.85,1.9-1.9,1.9H18v0.1  c0,1.051-0.85,1.9-1.9,1.9H3.9C2.85,22,2,21.15,2,20.1V7.9C2,6.85,2.85,6,3.9,6H4V5.9C4,4.85,4.85,4,5.9,4H6V3.9  C6,2.85,6.85,2,7.9,2h12.2C21.15,2,22,2.85,22,3.9z" style="fill:#42A5F5;;"/>
<path class="st1" d="M20,5.9v12.2c0,1.051-0.85,1.9-1.9,1.9H18V7.9C18,6.85,17.15,6,16.1,6H4V5.9C4,4.85,4.85,4,5.9,4h12.2  C19.15,4,20,4.85,20,5.9z M7,11c0,1.656,1.343,3,3,3s3-1.344,3-3c0-1.657-1.343-3-3-3S7,9.343,7,11z M16,18.5V20H4v-1.5  c0-1.995,3.998-3,6-3S16,16.505,16,18.5z" style="opacity:0.4;fill:#FFFFFF;;"/>
</svg>
