<?xml version="1.0" encoding="utf-8"?>
<!-- Generator: Adobe Illustrator 16.0.0, SVG Export Plug-In . SVG Version: 6.00 Build 0)  -->
<svg xmlns="http://www.w3.org/2000/svg" xmlns:xlink="http://www.w3.org/1999/xlink" version="1.1" id="Capa_1" x="0px" y="0px" width="24px" height="24px" viewBox="0 0 24 24" style="enable-background:new 0 0 24 24;" xml:space="preserve">

<path class="st0" d="M6.771,7.462L6.229,5.538l11.11-3.125l0.001,0.005l0.039-0.039l-0.129,2.09L14.458,5.3L6.771,7.462z   M8.086,13.086l-2.793,2.793l1.414,1.414l-1.414,1.414l-1.414-1.414l-1.293,1.293l2.828,2.828l5.5-5.5L8.086,13.086z" style="fill:#BDBDBD;;"/>
<path id="585290962_shock_x5F_color_grid" class="stshockcolor" d="M10.621,17.621l-4.242-4.242l11-11l4.242,4.242L10.621,17.621z" style="fill:#00838F;;"/>
<path class="st1" d="M15.586,4.172l4.242,4.242l-1.414,1.414l-4.242-4.242L15.586,4.172z M9.172,10.586l4.242,4.242l1.414-1.414  l-4.242-4.242L9.172,10.586z" style="opacity:0.4;;"/>
</svg>
