<?xml version="1.0" encoding="utf-8"?>
<!-- Generator: Adobe Illustrator 16.0.0, SVG Export Plug-In . SVG Version: 6.00 Build 0)  -->
<!DOCTYPE svg PUBLIC "-//W3C//DTD SVG 1.1//EN" "http://www.w3.org/Graphics/SVG/1.1/DTD/svg11.dtd">
<svg xmlns="http://www.w3.org/2000/svg" xmlns:xlink="http://www.w3.org/1999/xlink" version="1.1" id="Capa_1" x="0px" y="0px" width="24px" height="24px" viewBox="0 0 24 24" style="enable-background:new 0 0 24 24;" xml:space="preserve">

<rect class="st0" width="24" height="24" style="fill:none;;"/>
<polygon id="583345593_shock_x5F_color" class="stshockcolor" points="21,9 21,7 19,7 19,5 17,5 17,3 15,3 15,5 13,5 13,3 11,3 11,5 9,5 9,3 7,3 7,5   5,5 5,7 3,7 3,9 5,9 5,11 3,11 3,13 5,13 5,15 3,15 3,17 5,17 5,19 7,19 7,21 9,21 9,19 11,19 11,21 13,21 13,19 15,19 15,21 17,21   17,19 19,19 19,17 21,17 21,15 19,15 19,13 21,13 21,11 19,11 19,9 " style="fill:#388E3C;;"/>
<path class="st2" d="M7,19h2v2H7V19z M11,19h2v2h-2V19z M15,19h2v2h-2V19z M7,3h2v2H7V3z M11,3h2v2h-2V3z M15,3h2v2h-2V3z M3,9h2V7  H3V9z M3,13h2v-2H3V13z M3,17h2v-2H3V17z M19,9h2V7h-2V9z M19,13h2v-2h-2V13z M19,17h2v-2h-2V17z M17,7H7v10h10V7z" style="opacity:0.4;fill:#FFFFFF;;"/>
</svg>
