<?xml version="1.0" encoding="utf-8"?>
<!-- Generator: Adobe Illustrator 16.0.0, SVG Export Plug-In . SVG Version: 6.00 Build 0)  -->
<!DOCTYPE svg PUBLIC "-//W3C//DTD SVG 1.1//EN" "http://www.w3.org/Graphics/SVG/1.1/DTD/svg11.dtd">
<svg xmlns="http://www.w3.org/2000/svg" xmlns:xlink="http://www.w3.org/1999/xlink" version="1.1" id="Capa_1" x="0px" y="0px" width="24px" height="24px" viewBox="0 0 24 24" style="enable-background:new 0 0 24 24;" xml:space="preserve">

<rect class="st0" width="24" height="24" style="fill:none;;"/>
<path id="585341913_shock_x5F_color" class="stshockcolor" d="M21,4v12c0,1.1-0.9,2-2,2c0,1.1-0.9,2-2,2c0,1.1-0.9,2-2,2H5c-1.1,0-2-0.9-2-2V8  c0-1.1,0.9-2,2-2c0-1.1,0.9-2,2-2c0-1.1,0.9-2,2-2h10C20.1,2,21,2.9,21,4z" style="fill:#CFD8DC;;"/>
<path class="st2" d="M19,6v12c0,1.1-0.9,2-2,2V8c0-1.1-0.9-2-2-2H5c0-1.1,0.9-2,2-2h10C18.1,4,19,4.9,19,6z" style="opacity:0.4;fill:#FFFFFF;;"/>
<path class="st3" d="M9,17v2h6v-2H9z M5,19h2v-2H5V19z M9,13v2h6v-2H9z M5,15h2v-2H5V15z M9,9v2h6V9H9z M5,11h2V9H5V11z" style="opacity:0.6;fill:#263238;;"/>
</svg>
