<?xml version="1.0" encoding="utf-8"?>
<!-- Generator: Adobe Illustrator 17.0.0, SVG Export Plug-In . SVG Version: 6.00 Build 0)  -->

<svg version="1.1" id="Capa_1" xmlns="http://www.w3.org/2000/svg" xmlns:xlink="http://www.w3.org/1999/xlink" x="0px" y="0px"
	 width="24px" height="24px" viewBox="0 0 24 24" style="enable-background:new 0 0 24 24;" xml:space="preserve">
<path style="fill:#B3E5FC;" d="M10,13.5c0,1.933-1.567,3.5-3.5,3.5S3,15.433,3,13.5S4.567,10,6.5,10S10,11.567,10,13.5z M17.5,10
	c-1.933,0-3.5,1.567-3.5,3.5s1.567,3.5,3.5,3.5s3.5-1.567,3.5-3.5S19.433,10,17.5,10z"/>
<path style="opacity:0.6;fill:#FFFFFF;" d="M8.975,11.025C9.608,11.659,10,12.534,10,13.5c0,1.933-1.567,3.5-3.5,3.5
	c-0.966,0-1.841-0.392-2.475-1.025L8.975,11.025z M15.025,15.975C15.659,16.608,16.534,17,17.5,17c1.933,0,3.5-1.567,3.5-3.5
	c0-0.966-0.392-1.841-1.025-2.475L15.025,15.975z"/>
<path id="shock_x5f_color" class="stshockcolor" style="fill:#BDBDBD;" d="M21.026,10.737c-0.014-0.023-1.914-2.549-1.94-2.576
	c-0.462-0.51-1.07-0.881-1.757-1.052l-0.461-0.857C16.57,5.519,15.854,5,15.016,5c-1.103,0-2,0.897-2,2L13,12h-2V7
	c0-1.103-0.897-2-2-2C8.162,5,7.446,5.518,7.149,6.25L6.69,7.103C5.996,7.272,5.382,7.646,4.916,8.16
	c-0.026,0.028-1.942,2.578-1.942,2.578C2.373,11.503,2,12.454,2,13.5C2,15.981,4.019,18,6.5,18c1.953,0,3.602-1.258,4.224-3h2.553
	c0.621,1.742,2.271,3,4.224,3c2.481,0,4.5-2.019,4.5-4.5C22,12.454,21.627,11.503,21.026,10.737z M6.5,16C5.122,16,4,14.879,4,13.5
	C4,12.122,5.122,11,6.5,11S9,12.122,9,13.5C9,14.879,7.878,16,6.5,16z M17.5,16c-1.379,0-2.5-1.121-2.5-2.5
	c0-1.378,1.121-2.5,2.5-2.5s2.5,1.122,2.5,2.5C20,14.879,18.879,16,17.5,16z"/>
<path style="opacity:0.3;" d="M21.026,10.737C20.201,9.688,18.935,9,17.5,9c-1.953,0-3.602,1.258-4.224,3l0,0
	c-0.082,0.231-0.149,0.469-0.197,0.713C13.034,12.969,13,13.23,13,13.5c0,0.529,0.108,1.029,0.276,1.5h-2.553
	C10.892,14.529,11,14.029,11,13.5c0-0.27-0.034-0.531-0.08-0.787c-0.048-0.244-0.115-0.482-0.197-0.713l0,0
	C10.102,10.258,8.453,9,6.5,9c-1.436,0-2.702,0.688-3.526,1.738c0.015-0.023,0.016-0.051,0.033-0.073c0,0,1.883-2.477,1.909-2.505
	C5.557,7.453,6.473,7,7.5,7C9.43,7,11,8.57,11,10.5c0,0.1,0,1.5,0,1.5h2c0,0,0-1.4,0-1.5C13,8.57,14.57,7,16.5,7
	c1.028,0,1.944,0.453,2.585,1.161c0.026,0.027,1.908,2.504,1.908,2.504C21.009,10.687,21.011,10.715,21.026,10.737z"/>
</svg>
