<?xml version="1.0" encoding="utf-8"?>
<!-- Generator: Adobe Illustrator 16.0.0, SVG Export Plug-In . SVG Version: 6.00 Build 0)  -->
<!DOCTYPE svg PUBLIC "-//W3C//DTD SVG 1.1//EN" "http://www.w3.org/Graphics/SVG/1.1/DTD/svg11.dtd">
<svg xmlns="http://www.w3.org/2000/svg" xmlns:xlink="http://www.w3.org/1999/xlink" version="1.1" id="Capa_1" x="0px" y="0px" width="24px" height="24px" viewBox="0 0 24 24" style="enable-background:new 0 0 24 24;" xml:space="preserve">

<rect class="st2" width="24" height="24" style="fill:none;;"/>
<path class="st1" d="M20,6v13c0,1.66-3.58,3-8,3s-8-1.34-8-3V6c0-1.66,3.58-3,8-3S20,4.34,20,6z" style="fill:#546E7A;;"/>
<path id="58444751_shock_x5F_color_1_" class="stshockcolor" d="M12,17c-4.42,0-8-1.34-8-3v2c0,1.66,3.58,3,8,3s8-1.34,8-3v-2C20,15.66,16.42,17,12,17  z M12,12c-4.42,0-8-1.34-8-3v2c0,1.66,3.58,3,8,3s8-1.34,8-3V9C20,10.66,16.42,12,12,12z" style="fill:#4DD0E1;;"/>
<ellipse class="st3" cx="12" cy="6" rx="8" ry="3" style="opacity:0.1;fill:#FFFFFF;;"/>
</svg>
