<svg xmlns="http://www.w3.org/2000/svg" width="4442.667" height="4442.667" viewBox="0 0 3332.000000 3332.000000"><path d="M121 5.1c-23.1 1.3-41.7 5.7-57.9 13.5C26.4 36.1 7.8 69.5 4.2 124.2 2.3 153 2.2 376.5 4 407.5 11.3 527.9 52.5 612 132 668.7c38.7 27.6 90 49.8 150.7 65.2C341.6 748.8 387 757 512.5 775c38 5.5 79.1 11.5 91.4 13.5 12.3 1.9 22.6 3.5 22.8 3.5.1 0 .3 30.5.3 67.8v67.8l-17.2 5.7c-9.5 3.1-19.3 6.1-21.8 6.6-2.5.6-14.6 1.1-27 1.1-154.1.2-279.4 40.8-373.6 121-14 12-37.4 35.4-49.4 49.5C64.4 1197.8 20.7 1313 7.6 1455c-3.5 38.2-3.8 56-3.2 184 .9 195.3.9 313.1.2 910-.6 539.9-.7 557.4-2.6 585.3-2.5 35.5-2.6 73.7-.5 90.4 8.3 63.4 42.9 95.9 109.7 103.2 14.6 1.6 49.6 1.4 63.5-.4 45.6-6 75.8-24.7 92-57 14.5-28.8 18-68.3 12.8-146.5-1.9-27.6-1.9-54.2-.5-212.5.5-62.2 1.4-230 2-373 1.6-409.6 3.2-617.5 6-796.5 2.2-137.8 5.5-281.1 7.1-304.5 7.1-107.1 41.3-173.9 104-203.4 17.3-8.1 35.8-13.2 58.9-16.3 12.3-1.6 51.3-1.6 66 .1 36.4 4 74.1 11.8 114.3 23.6l12.7 3.8v47.1c0 25.9-.7 99.5-1.6 163.6-1.7 125-1.5 316.8.5 369.5 3.6 96.2 6.5 136.8 13.1 182.8 6.2 42.8 14.6 79.5 26.5 115.2 15.8 47.4 34.2 82.9 60.9 117.5 10.4 13.4 37.1 40.3 50.5 51 67.6 53.3 158.4 82.3 288.1 91.9 28.4 2.2 66.3 3.1 112.5 2.9 50.4-.3 61.1.3 82.5 4.4 18.4 3.5 30.5 8.1 59.9 22.8 84 42.2 130.9 81.8 141 119 4.4 16 14 73.8 19 113.5 7.8 62 12 114.4 20.1 252.5 2.8 47 5.9 97.8 7 112.8 1.1 15.1 2 28.3 2 29.4 0 2-.5 2-167.7 1.5-108.9-.3-173.1-.9-182.8-1.6-74.4-5.5-134.3-18.9-175-39.1-31.1-15.5-51.4-33.6-67-60.2-13.4-22.5-22.4-51.9-26.9-87.3-3.7-29.2-3.9-36.5-4.6-206-.6-152.3-.8-169-2.4-178.3-10.5-63.1-48-92-124.6-96.1-74.8-4-115.9 19.2-130.9 73.9-4.8 17.3-5.2 23.2-6.1 90-1.2 88.7-1.2 233.5 0 270.5 2.5 75.7 7.4 137.6 13.6 170 14.5 75.7 45.9 137.2 94.8 186 37.2 37.1 80.7 63.9 136.1 83.7 15.6 5.6 64.8 19.6 99.5 28.3 61.8 15.4 112.7 24.1 161.3 27.5 40.2 2.8 393 4.7 996.2 5.5 331.4.5 459.3.3 468-.5 67.9-6.3 103.4-35.7 114.1-94.5 2.6-14.1 2.6-57.4.1-72-9.2-53.1-37.5-83.4-87.8-94-24.5-5.2-9.9-5-259.4-4.7-275.7.3-485.6-1-508-3.1-8.2-.8-28-2.7-44-4.2-15.9-1.5-29.6-2.9-30.2-3.1-1-.3-1.3-19.8-1.3-93.2v-93l149.8-.7c82.3-.4 258.9-.5 392.4-.1 163.3.4 246.8.3 255-.4 43.9-3.7 73-14.1 93.5-33.4 26.8-25.2 37.4-59.6 36-116.5-.6-23.8-2.1-36.8-6.3-53.4-12.4-49.3-42.6-77.4-94.6-88.1-21.8-4.5-30.3-5-81.3-4.9-26.9.1-204 .2-393.4.3-273.9.2-344.5 0-345.1-1-.4-.7-1.1-3.6-1.5-6.4-1.4-10.7-11.8-66.1-16.5-88.1-29.1-135.7-65.3-217.8-120-272.5-56.7-56.7-136.1-85.8-260-95.5-40.3-3.1-68.3-3.6-172-3.3-105.9.3-109.3.2-148.5-3.8-52.4-5.2-94.5-16.2-120.6-31.5-20.7-12.1-38.9-43.4-46.9-80.7l-2.2-10.3 2.6-3.7c6.2-9 29.7-23.5 51.1-31.7 18.1-6.8 36.4-8 124-8 38 0 344.9.1 682.2.2l613.2.3 2.5 8.2c8.1 27 11 44.1 11 65.8 0 14.6-.4 18.9-2.2 26.2-9.1 36.5-34.7 56.4-83.7 65-17 2.9-69.6 3.5-131.1 1.4-77.1-2.6-94.7-2.8-123.3-1.7-51 2.1-90.3 7.5-107.6 14.6-37.3 15.4-79.2 60.9-99.6 108.2-8.8 20.3-12.8 38.4-13.6 60.6-1.3 35.5 7.7 61.9 28.9 84.3 18 19.1 40.3 30.7 74.3 38.9 53.4 12.9 114.8 22.6 174.5 27.7 20.9 1.8 95.7 1.8 114.5 0 33.7-3.2 60.6-7.5 86.5-13.8 144.6-35.5 244.7-129.1 302.5-282.9 27.8-73.9 46.1-166.6 53.5-270 3.1-44.1 3.3-59.1 3.7-333.2l.4-279.2 5.2-1c9.2-1.9 35.8-6 52.2-8 33.4-4.2 40.6-4.6 79-4.6 34.2.1 39.5.3 52.5 2.3 27.2 4.2 48 10.3 67.5 19.7 66 32 99.8 97.9 109.5 214 3.1 36.8 3.3 73.9 3.9 901 .6 793.8.8 836.5 2.4 846.5 6.4 37.8 17.4 62.6 36.5 82.2 16.8 17.3 38.7 28.2 67.7 33.6 6.8 1.2 14.9 1.6 32.5 1.7 24.7 0 32-.8 49-5.1 54.3-13.7 85.2-53.4 91.9-118.4 1.6-15 2.6-1139.3 1.2-1311-1.7-212.8-4.2-378.5-6.1-410-7.9-128-40.1-234.5-96.2-318.3-65.3-97.6-162-163.7-286.3-195.7-42.5-11-81.9-17-142.5-22-23.1-1.8-103-8-104.4-8-.3 0-.6-33.5-.6-74.5 0-58.9.3-74.5 1.3-74.5.6 0 10.2-.9 21.2-2s46.6-4.5 79-7.5c97.1-9.2 157.2-15.8 190-21.1 96.5-15.5 171.2-44.7 226.6-88.5 13.5-10.6 37.3-34.7 47-47.4 33.2-43.6 50.8-87.9 60.3-152 14-94.5 16.4-201.7 6.5-301-1.1-11.6-2.7-23.9-3.5-27.3-5.8-25.8-38.2-60.8-75.9-82-22-12.4-43-17.6-75.5-18.9-77.1-2.9-111.9 41.3-121 153.7-.6 7.4-1.5 36.2-2 64-.9 51.8-1.9 71.2-4.6 93-9.2 74.1-34.6 104.7-97.7 117.5-28.7 5.8-58.5 7.8-113.7 7.9-33.1 0-48.7-.4-65-1.7-11.8-1-34.9-2.8-51.3-4.1-16.4-1.3-30-2.6-30.3-2.9-.3-.3-.7-71.6-.9-158.4-.3-170.2-.1-164.2-5.5-185.4-15.3-59.6-59.3-87.3-135-84.6-48.8 1.8-81.8 12.5-104.7 34.1-23.7 22.4-34.6 53.3-34.6 98.1.4 205.1.3 293.8-.1 294.2-.3.3-11.7 2.7-25.3 5.4-28.3 5.6-33 6-104.3 8-41.6 1.2-84 .7-108.5-1.2-117.7-9-151.1-47.9-165.4-192.4-2.3-22.4-5.5-68.7-7.1-102-1.2-24.3-3.1-43.4-5.5-55.1-5.5-26.4-14.5-45.3-28.4-59.8-15.4-16-35-25.5-62.6-30.2-12.5-2.2-48.5-3-62.6-1.4-31.9 3.5-54.2 12.6-71.5 29.2-13.8 13.3-22.1 28.1-27.4 49.3-4.5 17.7-5.3 30-4.4 63 .5 15.9.9 80.5.9 143.5 0 121.8 0 122.2 5.1 157 18 123.9 80.2 196 205.5 238.4 38.4 13 89.6 25 149.6 35 34.4 5.8 61.9 9.6 142.3 19.6 75.7 9.4 125 16.4 131.1 18.5 3.2 1.1 33.8 15.4 36.7 17.1.4.3-6.6 126-7.4 131.9l-.4 4-36.6-.4c-162.2-1.6-290.9 27.3-391.8 87.9-127.3 76.5-204.7 204.4-230.1 380.3-6.3 43.9-8.8 81-8.9 133.3l-.1 40.1-9.5 3.1c-66.4 21.6-106.1 12.2-122-28.9-6.4-16.5-8.8-31.8-12-76.4-10.2-138.8-47.5-252.7-111.3-339.5-17.8-24.1-44.7-53.2-67-72.2-45-38.6-95.8-67.2-155.1-87.4-57.5-19.6-111.6-29.3-188.1-33.9-27.2-1.7-45.7-3.1-107.2-8.7l-37.3-3.3v-74.3c0-45.6.4-74.2.9-74.2 2.8 0 183.6-15.4 206.1-17.6 64-6.1 102.9-11 134-17 154.8-29.6 250.6-100.6 297.5-220.4 15.9-40.6 26.1-86.9 31-141 2.3-25.5 3.7-103.9 3.2-187.5-.3-64.5-.7-77.7-2.1-87.5-5.4-37.1-15.2-59.9-33.5-78-16.1-16-36.5-25-66.6-29.7-13.2-2-49.9-2.3-64.5-.5-59.8 7.6-93.8 31.6-109 77.1-7.1 21-9 37.6-9 76.8 0 16.4-.5 46.9-1.1 67.8-.8 28.4-.8 43.2 0 58.5 2.3 39.7 2.4 44.6 1.2 56.1-3.7 35.1-14.4 60.5-34.3 81-18.2 18.9-45.9 33.4-77.8 40.9-33.9 7.9-89.7 10.9-168 9.1-26.1-.6-63.1-1.4-82.1-1.8l-34.7-.6-.7-88.6c-.4-48.7-.4-119.7 0-157.6.8-81.7.1-92.8-7.5-117.5-11-35.7-33.6-58.3-68.4-68.4-15.5-4.5-28-5.9-51.6-5.9-23.4 0-38.2 1.6-55.1 5.8-54.2 13.6-82.6 49.2-87.8 110-.6 6.4-.8 50.8-.5 107 .3 52.8.1 119.2-.3 147.5l-.8 51.4-21 3.8c-27.6 4.8-72.1 11.2-96.5 13.9-24.5 2.6-72.3 3.7-89.2 2-76.1-7.4-113.2-40.9-130.7-118.1-9.1-40.5-12.9-89.8-13.6-180-.4-55.2-1.1-64.7-6-83.5-9.5-36.4-30.9-61.7-63.9-75.1C191.8 7.7 155.6 3 121 5.1zm1004 1209.4c107.1 13.7 160.6 79.8 170.1 210.3 1.5 21.4.7 85.6-1.5 109.2-2.1 22.3-5.5 54.1-6.1 55.7-.3 1-37.9 1.3-183.5 1.3H921v-355.9l4.2-1.2c16.2-4.3 57.3-12.3 81.4-15.8 12.6-1.9 37.3-4.5 51.4-5.5 12.3-.9 55 .3 67 1.9zm1164.5 7.5c34.7 1.3 89.9 4.8 103.3 6.6l4.2.5V1587h-388.6l-1.2-8.8c-22.2-166.4-13.9-247.8 30.2-297.7 39.7-44.9 119.3-63.3 252.1-58.5z"/></svg>