<?xml version="1.0" encoding="utf-8"?>
<!-- Generator: Adobe Illustrator 16.0.0, SVG Export Plug-In . SVG Version: 6.00 Build 0)  -->
<!DOCTYPE svg PUBLIC "-//W3C//DTD SVG 1.1//EN" "http://www.w3.org/Graphics/SVG/1.1/DTD/svg11.dtd">
<svg xmlns="http://www.w3.org/2000/svg" xmlns:xlink="http://www.w3.org/1999/xlink" version="1.1" id="Capa_1" x="0px" y="0px" width="24px" height="24px" viewBox="0 0 24 24" style="enable-background:new 0 0 24 24;" xml:space="preserve">

<rect class="st1" width="24" height="24" style="fill:none;;"/>
<path id="585345140_shock_x5F_color" class="stshockcolor" d="M19.667,6.888l1.916-1.917c0,0,1.277,2.556-0.64,4.473  c-1.916,1.915-4.471,0.638-4.471,0.638l-6.39,6.389c0,0,1.278,2.556-0.638,4.473c-1.917,1.917-4.472,0.639-4.472,0.639l1.917-1.917  v-2.557L4.333,17.11l-1.917,1.917c0,0-1.277-2.556,0.639-4.473c1.916-1.916,4.472-0.638,4.472-0.638l6.39-6.389  c0,0-1.279-2.556,0.637-4.472c1.918-1.917,4.473-0.639,4.473-0.639L17.11,4.333v2.555H19.667z" style="fill:#78909C;;"/>
<path class="st0" d="M19.027,2.417L17.11,4.333v2.555L6.889,17.109L4.333,17.11l-1.917,1.917c0,0-1.277-2.556,0.639-4.473  c1.916-1.916,4.472-0.638,4.472-0.638l6.39-6.389c0,0-1.279-2.556,0.637-4.472C16.473,1.139,19.027,2.417,19.027,2.417z" style="opacity:0.2;fill:#FFFFFF;;"/>
</svg>
