<?xml version="1.0" encoding="utf-8"?>
<!-- Generator: Adobe Illustrator 16.0.0, SVG Export Plug-In . SVG Version: 6.00 Build 0)  -->
<svg xmlns="http://www.w3.org/2000/svg" xmlns:xlink="http://www.w3.org/1999/xlink" version="1.1" id="Capa_1" x="0px" y="0px" width="24px" height="24px" viewBox="0 0 24 24" style="enable-background:new 0 0 24 24;" xml:space="preserve">

<rect class="st2" width="24" height="24" style="fill:none;;"/>
<path id="58129030_shock_x5F_color_grid" class="stshockcolor" d="M12,2C6.48,2,2,6.48,2,12c0,5.52,4.48,10,10,10c5.52,0,10-4.48,10-10  C22,6.48,17.52,2,12,2z" style="fill:#42A5F5;;"/>
<path class="st0" d="M12,2C6.49,2,2,6.49,2,12s4.49,10,10,10s10-4.49,10-10S17.51,2,12,2z M12,20c-4.42,0-8-3.59-8-8  c0-4.42,3.58-8,8-8c4.41,0,8,3.58,8,8C20,16.41,16.41,20,12,20z" style="opacity:0.2;fill:#FFFFFF;;"/>
<path class="st1" d="M11,7h2v2h-2V7z M11,11h2v6h-2V11z" style="fill:#FFFFFF;;"/>
</svg>
